<svg xmlns="http://www.w3.org/2000/svg" width="27" height="60"><rect id="backgroundrect" width="100%" height="100%" x="0" y="0" fill="none" stroke="none" class="" style=""/><g class="currentLayer" style=""><title>Layer 1</title><path d="M18.409410922908656,41.18688573007323 C19.302715290927758,39.87779538588263 22.354838548326363,4.884593993947282 22.354838548326363,4.519646477744356 S19.898251536273825,0.7376281879398976 13.272910806798809,0.7376281879398976 S3.299494356536737,3.8660091352913533 3.299494356536737,3.8660091352913533 c-0.22423392164707195,1.3090903441905977 4.242287918448448,36.521986509561536 5.433360409140587,37.75663482308388 c1.1910724906921388,1.2373718024492264 8.783251789212228,0.8742399455308918 9.677463986873628,-0.43575822830200217 zM6.015720646285885,4.957220365330949 c0.047207141399383576,-0.36040836799144793 3.982648640751839,-2.3276752028465273 7.480516252517701,-2.109796088695526 c3.4996832710504533,0.21787911415100109 6.8123536357879635,2.3639883885383606 6.849574651122093,2.728028075098991 c0.03631318569183351,0.3631318569183349 -0.3358969676494603,2.7271202454566956 -0.4466521840095523,2.6544938740730286 c-0.11166304600238806,-0.07262637138366707 -5.769257376790047,-4.183278991699219 -6.029804484128952,-4.146965806007385 c-0.2605471073389054,0.03631318569183351 -0.708107120990753,0.9459584872722625 -0.3722101533412934,1.1638376014232636 c0.3358969676494603,0.21787911415100109 6.141467530131341,4.328531734466552 6.141467530131341,4.473784477233886 c0,0.14525274276733416 -0.3722101533412934,2.109796088695526 -0.3722101533412934,2.109796088695526 s-6.215909560799599,-4.729792436361313 -6.402014637470245,-4.729792436361313 c-0.18610507667064669,0 -0.5583152300119402,1.0194926882982254 -0.3722101533412934,1.1647454310655594 c0.18610507667064669,0.14525274276733416 6.6634695744514465,4.657166064977646 6.6634695744514465,4.80241880774498 c0,0.14525274276733416 -0.14979189097881324,2.9086861739158634 -0.2614549369812013,2.9086861739158634 c-0.11166304600238806,0 -5.955362453460694,-5.165550664663315 -6.178688545465469,-5.129237478971482 c-0.22332609200477604,0.03631318569183351 -0.521094214677811,1.2001507871150972 -0.3358969676494603,1.3090903441905977 c0.18701290631294262,0.10893955707550054 6.477364497780799,5.310803407430648 6.589027543783188,5.564995707273483 c0.11166304600238806,0.2541922998428346 -0.2605471073389054,2.8360598025321972 -0.2605471073389054,2.8360598025321972 s-6.36388579249382,-5.165550664663315 -6.476456668138504,-5.165550664663315 c-0.1125708756446839,0 -0.44756001365184817,1.1638376014232636 -0.2614549369812013,1.3090903441905977 c0.18610507667064669,0.14525274276733416 6.625340729475021,5.456056150197982 6.625340729475021,5.673935264348984 s0.11166304600238806,2.5836831619739535 -0.14888406133651738,2.511056790590286 c-0.2605471073389054,-0.07262637138366707 -5.7320363614559176,-4.657166064977646 -5.991675639152526,-4.657166064977646 c-0.2614549369812013,0 -0.6336650903224953,0.8742399455308918 -0.3358969676494603,1.1647454310655594 c0.29776812267303476,0.2905054855346683 5.991675639152526,4.983984736204148 6.029804484128952,5.165550664663315 c0.03631318569183351,0.18156592845916755 -0.22332609200477604,3.237320504426956 -0.22332609200477604,3.237320504426956 s-5.359826208114624,-5.673935264348984 -5.508710269451141,-5.673935264348984 s-0.3358969676494603,1.3826245452165604 -0.11166304600238806,1.527877287983895 c0.22423392164707195,0.14525274276733416 5.32351302242279,5.456056150197982 5.397955053091049,5.6376220786571505 c0.07444203066825869,0.18156592845916755 -0.14888406133651738,2.1107039183378222 -0.14888406133651738,2.1107039183378222 s-4.578184886097908,-4.473784477233886 -4.727068947434425,-4.473784477233886 s-0.5955362453460693,1.3454035298824314 -0.48387319934368156,1.4552509166002274 c0.11166304600238806,0.10893955707550054 4.9503950394392024,4.548226507902145 4.9503950394392024,4.548226507902145 l-0.18610507667064669,1.9999487019777296 l-4.615405901432037,-3.8918656765222552 s-0.3722101533412934,1.1257087564468384 -0.29776812267303476,1.3072746849060057 c0.07444203066825869,0.18156592845916755 4.652626916766167,3.8564603204727175 4.652626916766167,4.003528722524643 c0,0.14525274276733416 -0.18610507667064669,1.3072746849060057 -0.29776812267303476,1.3435878705978397 c-0.11166304600238806,0.03631318569183351 -0.7444203066825873,0.21787911415100109 -1.004967414021492,0.10893955707550054 c-0.2605471073389054,-0.10893955707550054 -2.9413680410385132,-2.4366147599220276 -3.0521232573986055,-2.4003015742301943 c-0.11166304600238806,0.03631318569183351 -0.4466521840095523,0.9459584872722625 -0.3358969676494603,1.0912112300395964 c0.1125708756446839,0.14525274276733416 1.5269694583415991,1.5641904736757284 1.5269694583415991,1.5641904736757284 s-2.679913104057312,0.14525274276733416 -2.8660181807279583,-0.10893955707550054 c-0.1851972470283509,-0.2514688109159471 -5.061150255799293,-32.988713541746144 -4.8006031484603895,-34.98957007336617 zm6.960329867482185,40.98396920144558 c-3.2999607497453693,0.2296808995008469 -7.267176286578179,2.2332609200477602 -7.221784804463387,6.8132614654302595 c0.045391482114791916,4.580908375024796 3.5541530495882037,5.8845517413616175 5.90815531206131,6.057947203040123 c2.3540022624731063,0.1752111209630967 8.145955380320549,-0.4121546576023103 8.421027761936188,-5.042993662953377 c0.3722101533412934,-6.252222746491433 -2.56915788769722,-8.143231891393661 -7.108306099176407,-7.82730717587471 zm-0.8969356865882879,10.794094446897507 c-2.082561199426651,0 -3.6222402727603917,-2.2042103714942933 -3.6676317548751842,-3.943611966133118 c-0.045391482114791916,-1.7403094242811203 1.222846528172493,-4.291310719132424 4.7089123545885085,-4.407512913346291 c1.5832548961639406,-0.052654119253158646 4.617221560716629,-0.14162142419815069 4.617221560716629,4.696202739596367 c0,3.309946875810623 -3.5768487906455997,3.6531064805984497 -5.65940999007225,3.6531064805984497 zm-0.7789178330898286,-7.141895795941353 c-1.539679073333741,0.5220020443201067 -1.720337172150612,3.0139944124221802 -1.539679073333741,3.9427041364908217 c0.18156592845916755,0.9259862351417542 1.2682380102872848,0.7534986031055456 1.4942875912189488,0.5791953117847446 c0.22695741057395943,-0.17430329132080088 0,-0.2905054855346683 -0.13617444634437564,-1.3917028416395187 c-0.13617444634437564,-1.1021051857471467 0.9051061533689496,-2.3785136628150942 1.0866720818281175,-2.5510012948513032 c0.18156592845916755,-0.17430329132080088 -0.4148781465291978,-0.7444203066825873 -0.9041983237266539,-0.5810109710693362 z" id="svg_1" class="" stroke-opacity="1" stroke="#666666" fill-opacity="1" fill="#00cc99"/></g></svg>