<svg xmlns="http://www.w3.org/2000/svg" width="32" height="60" style=""><rect id="backgroundrect" width="100%" height="100%" x="0" y="0" fill="none" stroke="none" class="" style=""/><title/><g class="currentLayer" style=""><title>Layer 1</title><g id="svg_1" class="" fill="#00cc99" fill-opacity="1"><path d="M16.095869646601074,1.0784377889129766 A14.914000431395817,14.361643513387973 0 0 0 1.1989386153452384,15.423644086751338 a3.724232757813959,3.5863015744595916 0 0 0 7.448465515627918,0 a7.448465515627918,7.172603148919183 0 0 1 14.896931031255836,0 c0,3.1099809536784497 -1.8984897188416316,5.01873019499166 -5.018962276067984,7.792495376064526 C15.637602805752062,25.77610129835803 12.371636888787116,28.676164066544775 12.371636888787116,33.355151959049294 a3.724232757813959,3.5863015744595916 0 0 0 7.448465515627918,0 c0,-1.4604615445057625 1.425698370237147,-2.8017981050465557 3.753343843870871,-4.868105528864357 C26.70118105938999,25.706228189348977 30.99280067785691,21.899309296367207 30.99280067785691,15.423644086751338 A14.914000431395817,14.361643513387973 0 0 0 16.095869646601074,1.0784377889129766 z" id="svg_2" fill="#00cc99" fill-opacity="1"/><path d="M16.095869646601074,44.11405668242807 A7.448465515627918,7.172603148919183 0 1 0 23.544335162228993,51.28665983134725 A7.455851910597582,7.179715980375194 0 0 0 16.095869646601074,44.11405668242807 z" id="svg_3" fill="#00cc99" fill-opacity="1"/></g></g></svg>