<svg xmlns="http://www.w3.org/2000/svg" width="16" height="30" style=""><rect id="backgroundrect" width="100%" height="100%" x="0" y="0" fill="none" stroke="none" class="" style=""/><title/><g class="currentLayer" style=""><title>Layer 1</title><g id="svg_1" class="" fill="#00cc99" fill-opacity="1"><path d="M7.888972193002701,0.38878345489501953 A7.250055478587747,7.250055478587747 0 0 0 0.6472145617008211,7.630541086196899 a1.81043940782547,1.81043940782547 0 0 0 3.62087881565094,0 a3.62087881565094,3.62087881565094 0 0 1 7.24175763130188,0 c0,1.5699828804761171 -0.9229016621291642,2.533559081301093 -2.4398386679559954,3.9338132672935737 C7.666197623869775,12.856676176786422 6.078532785177231,14.320688003924488 6.078532785177231,16.68273812532425 a1.81043940782547,1.81043940782547 0 0 0 3.62087881565094,0 c0,-0.7372712748467927 0.6930663793057203,-1.4144057873636484 1.8245910091966389,-2.4575206261724234 C13.044469972696898,12.821402782323958 15.13072982430458,10.899591176927089 15.13072982430458,7.630541086196899 A7.250055478587747,7.250055478587747 0 0 0 7.888972193002701,0.38878345489501953 z" id="svg_2" fill="#00cc99" fill-opacity="1"/><path d="M7.888972193002701,22.11405634880066 A3.62087881565094,3.62087881565094 0 1 0 11.50985100865364,25.7349351644516 A3.6244695204764605,3.6244695204764605 0 0 0 7.888972193002701,22.11405634880066 z" id="svg_3" fill="#00cc99" fill-opacity="1"/></g></g></svg>